# xmcd
#
# Track frame offsets: 
#        150
#        41330
#        54730
#        78295
#        142235
#        164070
#        204295
#        245347
#        266042
#        291010
#        312125
#        324585
#
# Disc length: 4765 seconds
#
# Revision: 6
# Processed by: cddbd v1.5.2PL0 Copyright (c) Steve Scherf et al.
# Submitted via: ExactAudioCopy v0.95b4
#
DISCID=ae129b0c
DTITLE=Birmingham Symphony Orch., Simon Rattle - Classic Ellington
DYEAR=2000
DGENRE=Jazz
TTITLE0=Take the "A" train
TTITLE1=You're the One
TTITLE2=Sophisticated Lady
TTITLE3=Harlem (A Tone Parallel to Harlem)
TTITLE4=Isfahan (from Far East Suite)
TTITLE5=Ad Lib on Nippon (from Far East Suite)
TTITLE6=That Doo-Wah Thing
TTITLE7=Something to Live For
TTITLE8=Come Sunday
TTITLE9=Solitude in Transblucency
TTITLE10=Maybe
TTITLE11=Things Ain't What They Used to Be
EXTD=YEAR: 2000
EXTT0=
EXTT1=
EXTT2=
EXTT3=
EXTT4=
EXTT5=
EXTT6=
EXTT7=
EXTT8=
EXTT9=
EXTT10=
EXTT11=
PLAYORDER=
